<svg xmlns="http://www.w3.org/2000/svg" width="280" height="29" viewBox="0 0 280 29">
  <g fill="#FFFFFF" fill-rule="evenodd" transform="translate(0 -1)">
    <polygon points="36.318 8.215 41.525 8.215 44.712 16.791 47.919 8.215 53.107 8.215 53.107 22.624 49.227 22.624 49.227 14.263 46.037 22.624 43.06 22.624 39.91 14.32 39.91 22.624 36.318 22.624"/>
    <g transform="translate(0 .898)">
      <path d="M55.6230938,16.0673 L55.6230938,7.31865714 L59.6196563,7.31865714 L59.6196563,15.5225857 C59.6196563,17.4866571 60.0024688,18.4587286 62.5180938,18.4587286 C64.9965313,18.4587286 65.4209063,17.5840857 65.4209063,15.5225857 L65.4209063,7.31865714 L69.2818438,7.31865714 L69.2818438,16.0673 C69.2818438,18.7709429 68.9537188,22.0170857 62.4612188,22.0170857 C55.9687188,22.0170857 55.6230938,18.7709429 55.6230938,16.0673"/>
      <polygon points="71.777 7.318 75.752 7.318 75.752 12.49 81.208 12.49 81.208 7.318 85.204 7.318 85.204 21.726 81.208 21.726 81.208 16.261 75.752 16.261 75.752 21.726 71.777 21.726"/>
      <path d="M87.0675313 14.5117643C87.0675313 9.26169286 89.9484688 7.08505 94.7894063 7.08505 97.6703438 7.08505 99.3044063 7.84233571 100.684719 9.32147857L97.9394063 12.1004071C97.1519063 11.2833357 96.3250313 10.7784786 94.7697188 10.7784786 92.0615938 10.7784786 91.0815938 12.1004071 91.0815938 14.57155 91.0815938 16.9031929 91.8122188 18.3424786 94.7894063 18.3424786 96.4978438 18.3424786 97.2678438 17.7778357 98.1690938 16.9231214L100.780969 19.5094071C99.5712813 20.8114071 97.9962813 21.9384786 94.5400313 21.9384786 88.9312813 21.9384786 87.0675313 19.2171214 87.0675313 14.5117643M102.453969 16.0673L102.453969 7.31865714 106.450531 7.31865714 106.450531 15.5225857C106.450531 17.4866571 106.833344 18.4587286 109.348969 18.4587286 111.827406 18.4587286 112.251781 17.5840857 112.251781 15.5225857L112.251781 7.31865714 116.112719 7.31865714 116.112719 16.0673C116.112719 18.7709429 115.784594 22.0170857 109.292094 22.0170857 102.799594 22.0170857 102.453969 18.7709429 102.453969 16.0673"/>
      <polygon points="135.392 10.954 130.667 10.954 130.667 7.318 144.114 7.318 144.114 10.954 139.389 10.954 139.389 21.726 135.392 21.726"/>
      <path d="M152.007625 17.4089357L149.432938 17.4089357 149.432938 21.7267929 145.5545 21.7267929 145.5545 7.31622143 152.775438 7.31622143C157.86575 7.31622143 158.729813 9.57257857 158.729813 12.2762214 158.729813 14.0653643 158.290125 15.96965 155.982313 16.88415L158.576688 21.7267929 154.31325 21.7267929 152.007625 17.4089357zM152.642 14.0653643C154.177625 14.0653643 154.71575 13.75315 154.71575 12.4312214 154.71575 11.0495071 154.214813 10.7395071 152.622313 10.7395071L149.432938 10.7395071 149.432938 14.0653643 152.642 14.0653643zM165.050594 7.22034286L169.104031 7.22034286 174.848406 21.7261286 170.716219 21.7261286 170.005281 19.8594857 163.937156 19.8594857 163.226219 21.7261286 159.345594 21.7261286 165.050594 7.22034286zM168.738719 16.5535571L166.971219 11.9655571 165.203719 16.5535571 168.738719 16.5535571z"/>
      <polygon points="176.288 7.318 180.553 7.318 186.103 14.939 186.103 7.318 189.905 7.318 189.905 21.726 186.239 21.726 180.09 13.307 180.09 21.726 176.288 21.726"/>
      <path d="M191.347406 19.9365429L193.344594 17.0402571C194.766469 18.0322571 196.571156 18.6146143 198.474281 18.6146143 201.182406 18.6146143 201.298344 18.2249 201.298344 17.4277571 201.298344 16.7081143 200.355531 16.5331857 198.338656 16.2807571 194.171469 15.7559714 192.250844 14.9389 192.250844 11.6927571 192.250844 8.25175714 194.248031 7.08482857 198.570531 7.08482857 201.816781 7.08482857 203.678344 7.86204286 204.754594 8.56175714L202.604281 11.6927571C201.777406 11.1281143 200.009906 10.5834 198.531156 10.5834 196.457406 10.5834 196.208031 10.8956143 196.208031 11.5953286 196.208031 12.4124 197.225219 12.5297571 199.358031 12.7999 202.910531 13.2671143 205.235844 13.9092571 205.235844 17.2329 205.235844 20.1712571 203.774594 21.9404714 198.588031 21.9404714 195.420531 21.9404714 192.883031 21.1411143 191.347406 19.9365429M207.136781 7.31755L214.281156 7.31755C219.200844 7.31755 220.408344 9.45655 220.408344 12.4126214 220.408344 15.3487643 219.294906 17.7977643 214.051469 17.7977643L211.017406 17.7977643 211.017406 21.7259071 207.136781 21.7259071 207.136781 7.31755zM214.224281 14.4719071C215.838656 14.4719071 216.413969 13.9869786 216.413969 12.6251929 216.413969 11.1881214 215.875844 10.7386214 214.204594 10.7386214L211.017406 10.7386214 211.017406 14.4719071 214.224281 14.4719071zM221.408906 14.5117643C221.408906 8.97162143 224.615781 7.08505 229.130781 7.08505 233.645781 7.08505 236.870156 8.97162143 236.870156 14.5117643 236.870156 20.0718357 233.645781 21.9584071 229.130781 21.9584071 224.615781 21.9584071 221.408906 20.0718357 221.408906 14.5117643M232.838594 14.5892643C232.838594 12.3528357 232.088281 10.7784786 229.130781 10.7784786 226.173281 10.7784786 225.422969 12.3528357 225.422969 14.5892643 225.422969 16.8256929 226.173281 18.4199786 229.130781 18.4199786 232.088281 18.4199786 232.838594 16.8256929 232.838594 14.5892643M245.189219 17.4089357L242.614531 17.4089357 242.614531 21.7267929 238.736094 21.7267929 238.736094 7.31622143 245.957031 7.31622143C251.047344 7.31622143 251.911406 9.57257857 251.911406 12.2762214 251.911406 14.0653643 251.471719 15.96965 249.163906 16.88415L251.758281 21.7267929 247.494844 21.7267929 245.189219 17.4089357zM245.823594 14.0653643C247.359219 14.0653643 247.897344 13.75315 247.897344 12.4312214 247.897344 11.0495071 247.398594 10.7395071 245.803906 10.7395071L242.614531 10.7395071 242.614531 14.0653643 245.823594 14.0653643z"/>
      <polygon points="257.464 10.954 252.739 10.954 252.739 7.318 266.185 7.318 266.185 10.954 261.46 10.954 261.46 21.726 257.464 21.726"/>
      <polygon points="267.626 7.318 267.626 21.726 279.036 21.726 279.036 18.245 271.6 18.245 271.6 16.221 278.766 16.221 278.766 12.703 271.6 12.703 271.6 10.954 278.959 10.954 278.959 7.318"/>
      <path d="M14.0616875,0.316421429 C6.2960625,0.316421429 0.000437500001,6.68913571 0.000437500001,14.54985 C0.000437500001,22.4127786 6.2960625,28.7854929 14.0616875,28.7854929 C21.8273125,28.7854929 28.1229375,22.4127786 28.1229375,14.54985 C28.1229375,6.68913571 21.8273125,0.316421429 14.0616875,0.316421429 L14.0616875,0.316421429 Z M12.0098125,22.8224214 L6.552,20.8251357 L6.552,19.8242786 L12.0098125,21.8215643 L12.0098125,22.8224214 Z M12.0098125,20.3800643 L6.552,18.3849929 L6.552,17.3841357 L12.0098125,19.3792071 L12.0098125,20.3800643 Z M12.0098125,17.9399214 L6.552,15.9426357 L6.552,14.9417786 L12.0098125,16.9390643 L12.0098125,17.9399214 Z M21.571375,20.8251357 L16.1135625,22.8224214 L16.1135625,21.8215643 L21.571375,19.8242786 L21.571375,20.8251357 Z M21.571375,18.3849929 L16.1135625,20.3800643 L16.1135625,19.3792071 L21.571375,17.3841357 L21.571375,18.3849929 Z M21.571375,15.9426357 L16.1135625,17.9399214 L16.1135625,16.9390643 L21.571375,14.9417786 L21.571375,15.9426357 Z M21.571375,13.5024929 L14.0616875,16.2482071 L6.552,13.5024929 L6.552,12.4994214 L14.0616875,15.24735 L21.571375,12.4994214 L21.571375,13.5024929 Z M21.571375,11.0601357 L14.0616875,13.8080643 L6.552,11.0601357 L6.552,10.0592786 L14.0616875,12.8049929 L21.571375,10.0592786 L21.571375,11.0601357 Z M21.571375,8.61777857 L14.0616875,11.3657071 L6.552,8.61777857 L6.552,7.61692143 L14.0616875,10.36485 L21.571375,7.61692143 L21.571375,8.61777857 Z"/>
    </g>
  </g>
</svg>
